<mxfile host="Electron" agent="Mozilla/5.0 (X11; Linux x86_64) AppleWebKit/537.36 (KHTML, like Gecko) draw.io/24.7.17 Chrome/130.0.6723.59 Electron/33.0.2 Safari/537.36" version="24.7.17">
  <diagram name="Page-1" id="fdjGdXvAsjczHKYtK1LA">
    <mxGraphModel dx="1140" dy="855" grid="1" gridSize="10" guides="1" tooltips="1" connect="1" arrows="1" fold="1" page="1" pageScale="1" pageWidth="850" pageHeight="1100" math="0" shadow="0">
      <root>
        <mxCell id="0" />
        <mxCell id="1" parent="0" />
        <mxCell id="IAUE5juLbo_nPO6KiIEX-1" value="" style="whiteSpace=wrap;html=1;fillColor=#FFFFFF;" vertex="1" parent="1">
          <mxGeometry x="220" y="100" width="440" height="730" as="geometry" />
        </mxCell>
        <mxCell id="RQVmKpM9DnEWpApq8nHl-12" value="Take-Off" style="rounded=0;whiteSpace=wrap;html=1;movable=1;resizable=1;rotatable=1;deletable=1;editable=1;locked=0;connectable=1;" parent="1" vertex="1">
          <mxGeometry x="345" y="150" width="120" height="60" as="geometry" />
        </mxCell>
        <mxCell id="RQVmKpM9DnEWpApq8nHl-13" value="Landing" style="rounded=0;whiteSpace=wrap;html=1;movable=1;resizable=1;rotatable=1;deletable=1;editable=1;locked=0;connectable=1;" parent="1" vertex="1">
          <mxGeometry x="345" y="220" width="120" height="60" as="geometry" />
        </mxCell>
        <mxCell id="RQVmKpM9DnEWpApq8nHl-14" value="Taxi" style="rounded=0;whiteSpace=wrap;html=1;movable=1;resizable=1;rotatable=1;deletable=1;editable=1;locked=0;connectable=1;" parent="1" vertex="1">
          <mxGeometry x="345" y="290" width="120" height="60" as="geometry" />
        </mxCell>
        <mxCell id="RQVmKpM9DnEWpApq8nHl-15" value="Ground&amp;nbsp;&lt;span style=&quot;background-color: initial;&quot;&gt;Service&lt;/span&gt;" style="rounded=0;whiteSpace=wrap;html=1;movable=1;resizable=1;rotatable=1;deletable=1;editable=1;locked=0;connectable=1;" parent="1" vertex="1">
          <mxGeometry x="345" y="360" width="120" height="60" as="geometry" />
        </mxCell>
        <mxCell id="RQVmKpM9DnEWpApq8nHl-16" value="Go to waypoint" style="rounded=0;whiteSpace=wrap;html=1;movable=1;resizable=1;rotatable=1;deletable=1;editable=1;locked=0;connectable=1;" parent="1" vertex="1">
          <mxGeometry x="345" y="430" width="120" height="60" as="geometry" />
        </mxCell>
        <mxCell id="RQVmKpM9DnEWpApq8nHl-17" value="Go to runway" style="rounded=0;whiteSpace=wrap;html=1;movable=1;resizable=1;rotatable=1;deletable=1;editable=1;locked=0;connectable=1;" parent="1" vertex="1">
          <mxGeometry x="345" y="500" width="120" height="60" as="geometry" />
        </mxCell>
        <mxCell id="RQVmKpM9DnEWpApq8nHl-18" value="Flying&lt;span style=&quot;background-color: initial;&quot;&gt;&amp;nbsp;out&lt;/span&gt;" style="rounded=0;whiteSpace=wrap;html=1;movable=1;resizable=1;rotatable=1;deletable=1;editable=1;locked=0;connectable=1;" parent="1" vertex="1">
          <mxGeometry x="345" y="570" width="120" height="60" as="geometry" />
        </mxCell>
        <mxCell id="RQVmKpM9DnEWpApq8nHl-19" value="Flying In" style="rounded=0;whiteSpace=wrap;html=1;movable=1;resizable=1;rotatable=1;deletable=1;editable=1;locked=0;connectable=1;" parent="1" vertex="1">
          <mxGeometry x="345" y="640" width="120" height="60" as="geometry" />
        </mxCell>
        <mxCell id="RQVmKpM9DnEWpApq8nHl-20" value="Flying In Area" style="rounded=0;whiteSpace=wrap;html=1;movable=1;resizable=1;rotatable=1;deletable=1;editable=1;locked=0;connectable=1;" parent="1" vertex="1">
          <mxGeometry x="345" y="710" width="120" height="60" as="geometry" />
        </mxCell>
        <mxCell id="RQVmKpM9DnEWpApq8nHl-22" style="edgeStyle=orthogonalEdgeStyle;rounded=0;orthogonalLoop=1;jettySize=auto;html=1;strokeColor=#0D0D0D;fillColor=#030303;" parent="1" source="RQVmKpM9DnEWpApq8nHl-1" edge="1">
          <mxGeometry relative="1" as="geometry">
            <mxPoint x="350" y="160" as="targetPoint" />
          </mxGeometry>
        </mxCell>
        <mxCell id="RQVmKpM9DnEWpApq8nHl-1" value="&lt;font color=&quot;#030303&quot;&gt;Tower&lt;/font&gt;&lt;div&gt;&lt;br&gt;&lt;/div&gt;" style="shape=umlActor;verticalLabelPosition=bottom;verticalAlign=top;html=1;outlineConnect=0;fillColor=#030303;strokeColor=#0D0D0D;" parent="1" vertex="1">
          <mxGeometry x="240" y="130" width="30" height="60" as="geometry" />
        </mxCell>
        <mxCell id="RQVmKpM9DnEWpApq8nHl-24" style="edgeStyle=orthogonalEdgeStyle;rounded=0;orthogonalLoop=1;jettySize=auto;html=1;entryX=0;entryY=0.25;entryDx=0;entryDy=0;strokeColor=#0D0D0D;fillColor=#030303;" parent="1" source="RQVmKpM9DnEWpApq8nHl-2" target="RQVmKpM9DnEWpApq8nHl-14" edge="1">
          <mxGeometry relative="1" as="geometry" />
        </mxCell>
        <mxCell id="RQVmKpM9DnEWpApq8nHl-29" style="edgeStyle=orthogonalEdgeStyle;rounded=0;orthogonalLoop=1;jettySize=auto;html=1;entryX=0;entryY=0.5;entryDx=0;entryDy=0;strokeColor=#0D0D0D;fillColor=#030303;" parent="1" source="RQVmKpM9DnEWpApq8nHl-2" target="RQVmKpM9DnEWpApq8nHl-15" edge="1">
          <mxGeometry relative="1" as="geometry" />
        </mxCell>
        <mxCell id="RQVmKpM9DnEWpApq8nHl-30" style="edgeStyle=orthogonalEdgeStyle;rounded=0;orthogonalLoop=1;jettySize=auto;html=1;entryX=0;entryY=0.5;entryDx=0;entryDy=0;strokeColor=#0D0D0D;fillColor=#030303;" parent="1" source="RQVmKpM9DnEWpApq8nHl-2" target="RQVmKpM9DnEWpApq8nHl-16" edge="1">
          <mxGeometry relative="1" as="geometry" />
        </mxCell>
        <mxCell id="RQVmKpM9DnEWpApq8nHl-31" style="edgeStyle=orthogonalEdgeStyle;rounded=0;orthogonalLoop=1;jettySize=auto;html=1;entryX=0;entryY=0.5;entryDx=0;entryDy=0;strokeColor=#0D0D0D;fillColor=#030303;" parent="1" source="RQVmKpM9DnEWpApq8nHl-2" target="RQVmKpM9DnEWpApq8nHl-17" edge="1">
          <mxGeometry relative="1" as="geometry" />
        </mxCell>
        <mxCell id="RQVmKpM9DnEWpApq8nHl-2" value="&lt;font color=&quot;#000000&quot;&gt;Ground&lt;/font&gt;&lt;div&gt;&lt;br&gt;&lt;/div&gt;" style="shape=umlActor;verticalLabelPosition=bottom;verticalAlign=top;html=1;outlineConnect=0;fillColor=#030303;strokeColor=#0D0D0D;" parent="1" vertex="1">
          <mxGeometry x="240" y="250" width="30" height="60" as="geometry" />
        </mxCell>
        <mxCell id="RQVmKpM9DnEWpApq8nHl-26" style="edgeStyle=orthogonalEdgeStyle;rounded=0;orthogonalLoop=1;jettySize=auto;html=1;entryX=0;entryY=0.5;entryDx=0;entryDy=0;strokeColor=#0D0D0D;fillColor=#030303;" parent="1" source="RQVmKpM9DnEWpApq8nHl-3" target="RQVmKpM9DnEWpApq8nHl-20" edge="1">
          <mxGeometry relative="1" as="geometry">
            <Array as="points">
              <mxPoint x="290" y="630" />
              <mxPoint x="290" y="740" />
            </Array>
          </mxGeometry>
        </mxCell>
        <mxCell id="RQVmKpM9DnEWpApq8nHl-3" value="&lt;font color=&quot;#080808&quot;&gt;Center&lt;/font&gt;&lt;div&gt;&lt;br&gt;&lt;/div&gt;" style="shape=umlActor;verticalLabelPosition=bottom;verticalAlign=top;html=1;outlineConnect=0;fillColor=#030303;strokeColor=#0D0D0D;" parent="1" vertex="1">
          <mxGeometry x="240" y="600" width="30" height="60" as="geometry" />
        </mxCell>
        <mxCell id="RQVmKpM9DnEWpApq8nHl-27" style="edgeStyle=orthogonalEdgeStyle;rounded=0;orthogonalLoop=1;jettySize=auto;html=1;entryX=0;entryY=0.5;entryDx=0;entryDy=0;strokeColor=#0D0D0D;fillColor=#030303;" parent="1" source="RQVmKpM9DnEWpApq8nHl-4" target="RQVmKpM9DnEWpApq8nHl-18" edge="1">
          <mxGeometry relative="1" as="geometry">
            <Array as="points">
              <mxPoint x="300" y="400" />
              <mxPoint x="300" y="600" />
            </Array>
          </mxGeometry>
        </mxCell>
        <mxCell id="RQVmKpM9DnEWpApq8nHl-4" value="&lt;font color=&quot;#0f0f0f&quot;&gt;Departure&lt;/font&gt;&lt;div&gt;&lt;br&gt;&lt;/div&gt;" style="shape=umlActor;verticalLabelPosition=bottom;verticalAlign=top;html=1;outlineConnect=0;fillColor=#030303;strokeColor=#0D0D0D;" parent="1" vertex="1">
          <mxGeometry x="240" y="370" width="30" height="60" as="geometry" />
        </mxCell>
        <mxCell id="RQVmKpM9DnEWpApq8nHl-28" style="edgeStyle=orthogonalEdgeStyle;rounded=0;orthogonalLoop=1;jettySize=auto;html=1;entryX=0;entryY=0.5;entryDx=0;entryDy=0;strokeColor=#0D0D0D;fillColor=#030303;" parent="1" source="RQVmKpM9DnEWpApq8nHl-5" target="RQVmKpM9DnEWpApq8nHl-19" edge="1">
          <mxGeometry relative="1" as="geometry">
            <Array as="points">
              <mxPoint x="255" y="560" />
              <mxPoint x="310" y="560" />
              <mxPoint x="310" y="670" />
            </Array>
          </mxGeometry>
        </mxCell>
        <mxCell id="RQVmKpM9DnEWpApq8nHl-5" value="&lt;font color=&quot;#000000&quot;&gt;Arrival&lt;/font&gt;&lt;div&gt;&lt;br&gt;&lt;/div&gt;" style="shape=umlActor;verticalLabelPosition=bottom;verticalAlign=top;html=1;outlineConnect=0;fillColor=#030303;strokeColor=#0D0D0D;" parent="1" vertex="1">
          <mxGeometry x="240" y="490" width="30" height="60" as="geometry" />
        </mxCell>
        <mxCell id="IAUE5juLbo_nPO6KiIEX-30" style="edgeStyle=orthogonalEdgeStyle;rounded=0;orthogonalLoop=1;jettySize=auto;html=1;entryX=1;entryY=0.5;entryDx=0;entryDy=0;strokeColor=#000000;" edge="1" parent="1" source="RQVmKpM9DnEWpApq8nHl-7" target="RQVmKpM9DnEWpApq8nHl-15">
          <mxGeometry relative="1" as="geometry">
            <Array as="points">
              <mxPoint x="500" y="240" />
              <mxPoint x="500" y="390" />
            </Array>
          </mxGeometry>
        </mxCell>
        <mxCell id="IAUE5juLbo_nPO6KiIEX-31" style="edgeStyle=orthogonalEdgeStyle;rounded=0;orthogonalLoop=1;jettySize=auto;html=1;entryX=1;entryY=0.5;entryDx=0;entryDy=0;strokeColor=#0D0D0D;" edge="1" parent="1" source="RQVmKpM9DnEWpApq8nHl-7" target="RQVmKpM9DnEWpApq8nHl-12">
          <mxGeometry relative="1" as="geometry">
            <Array as="points">
              <mxPoint x="500" y="240" />
              <mxPoint x="500" y="180" />
            </Array>
          </mxGeometry>
        </mxCell>
        <mxCell id="IAUE5juLbo_nPO6KiIEX-32" style="edgeStyle=orthogonalEdgeStyle;rounded=0;orthogonalLoop=1;jettySize=auto;html=1;entryX=1;entryY=0.5;entryDx=0;entryDy=0;strokeColor=#0D0D0D;" edge="1" parent="1" source="RQVmKpM9DnEWpApq8nHl-7" target="RQVmKpM9DnEWpApq8nHl-13">
          <mxGeometry relative="1" as="geometry">
            <Array as="points">
              <mxPoint x="500" y="240" />
              <mxPoint x="500" y="250" />
            </Array>
          </mxGeometry>
        </mxCell>
        <mxCell id="RQVmKpM9DnEWpApq8nHl-7" value="Preapproved DB" style="rounded=0;whiteSpace=wrap;html=1;" parent="1" vertex="1">
          <mxGeometry x="520" y="210" width="120" height="60" as="geometry" />
        </mxCell>
        <mxCell id="IAUE5juLbo_nPO6KiIEX-33" style="edgeStyle=orthogonalEdgeStyle;rounded=0;orthogonalLoop=1;jettySize=auto;html=1;entryX=1;entryY=0.5;entryDx=0;entryDy=0;strokeColor=#030303;" edge="1" parent="1" source="RQVmKpM9DnEWpApq8nHl-8" target="RQVmKpM9DnEWpApq8nHl-14">
          <mxGeometry relative="1" as="geometry" />
        </mxCell>
        <mxCell id="RQVmKpM9DnEWpApq8nHl-8" value="Taxi DB" style="rounded=0;whiteSpace=wrap;html=1;" parent="1" vertex="1">
          <mxGeometry x="520" y="320" width="120" height="60" as="geometry" />
        </mxCell>
        <mxCell id="IAUE5juLbo_nPO6KiIEX-29" style="edgeStyle=orthogonalEdgeStyle;rounded=0;orthogonalLoop=1;jettySize=auto;html=1;entryX=1;entryY=0.5;entryDx=0;entryDy=0;strokeColor=#0A0A0A;" edge="1" parent="1" source="RQVmKpM9DnEWpApq8nHl-9" target="RQVmKpM9DnEWpApq8nHl-20">
          <mxGeometry relative="1" as="geometry">
            <Array as="points">
              <mxPoint x="500" y="460" />
              <mxPoint x="500" y="740" />
            </Array>
          </mxGeometry>
        </mxCell>
        <mxCell id="RQVmKpM9DnEWpApq8nHl-9" value="Scheduled DB" style="rounded=0;whiteSpace=wrap;html=1;" parent="1" vertex="1">
          <mxGeometry x="520" y="430" width="120" height="60" as="geometry" />
        </mxCell>
        <mxCell id="IAUE5juLbo_nPO6KiIEX-34" style="edgeStyle=orthogonalEdgeStyle;rounded=0;orthogonalLoop=1;jettySize=auto;html=1;entryX=1;entryY=0.5;entryDx=0;entryDy=0;strokeColor=#000000;" edge="1" parent="1" source="RQVmKpM9DnEWpApq8nHl-10" target="RQVmKpM9DnEWpApq8nHl-17">
          <mxGeometry relative="1" as="geometry" />
        </mxCell>
        <mxCell id="IAUE5juLbo_nPO6KiIEX-35" style="edgeStyle=orthogonalEdgeStyle;rounded=0;orthogonalLoop=1;jettySize=auto;html=1;entryX=1;entryY=0.5;entryDx=0;entryDy=0;strokeColor=#000000;" edge="1" parent="1" source="RQVmKpM9DnEWpApq8nHl-10" target="RQVmKpM9DnEWpApq8nHl-18">
          <mxGeometry relative="1" as="geometry" />
        </mxCell>
        <mxCell id="RQVmKpM9DnEWpApq8nHl-10" value="Takeoff DB" style="rounded=0;whiteSpace=wrap;html=1;" parent="1" vertex="1">
          <mxGeometry x="520" y="540" width="120" height="60" as="geometry" />
        </mxCell>
        <mxCell id="IAUE5juLbo_nPO6KiIEX-36" style="edgeStyle=orthogonalEdgeStyle;rounded=0;orthogonalLoop=1;jettySize=auto;html=1;entryX=1;entryY=0.5;entryDx=0;entryDy=0;strokeColor=#000000;" edge="1" parent="1" source="RQVmKpM9DnEWpApq8nHl-11" target="RQVmKpM9DnEWpApq8nHl-19">
          <mxGeometry relative="1" as="geometry" />
        </mxCell>
        <mxCell id="RQVmKpM9DnEWpApq8nHl-11" value="Landing DB" style="rounded=0;whiteSpace=wrap;html=1;" parent="1" vertex="1">
          <mxGeometry x="520" y="650" width="120" height="60" as="geometry" />
        </mxCell>
        <mxCell id="RQVmKpM9DnEWpApq8nHl-23" style="edgeStyle=orthogonalEdgeStyle;rounded=0;orthogonalLoop=1;jettySize=auto;html=1;entryX=0;entryY=0.5;entryDx=0;entryDy=0;strokeColor=#0D0D0D;fillColor=#030303;" parent="1" source="RQVmKpM9DnEWpApq8nHl-1" target="RQVmKpM9DnEWpApq8nHl-13" edge="1">
          <mxGeometry relative="1" as="geometry">
            <mxPoint x="360" y="170" as="targetPoint" />
            <mxPoint x="280" y="170" as="sourcePoint" />
            <Array as="points" />
          </mxGeometry>
        </mxCell>
        <mxCell id="IAUE5juLbo_nPO6KiIEX-26" value="" style="endArrow=classic;html=1;rounded=0;entryX=1;entryY=0.5;entryDx=0;entryDy=0;exitX=0;exitY=0.5;exitDx=0;exitDy=0;strokeColor=#050505;" edge="1" parent="1" source="RQVmKpM9DnEWpApq8nHl-9" target="RQVmKpM9DnEWpApq8nHl-16">
          <mxGeometry width="50" height="50" relative="1" as="geometry">
            <mxPoint x="530" y="360" as="sourcePoint" />
            <mxPoint x="475" y="330" as="targetPoint" />
          </mxGeometry>
        </mxCell>
      </root>
    </mxGraphModel>
  </diagram>
</mxfile>
